<?xml version="1.0" encoding="UTF-8"?>
<!DOCTYPE svg PUBLIC "-//W3C//DTD SVG 1.1//EN" "http://www.w3.org/Graphics/SVG/1.1/DTD/svg11.dtd">
<svg xmlns="http://www.w3.org/2000/svg" version="1.1" width="733px" height="250px" style="shape-rendering:geometricPrecision; text-rendering:geometricPrecision; image-rendering:optimizeQuality; fill-rule:evenodd; clip-rule:evenodd" xmlns:xlink="http://www.w3.org/1999/xlink">
<g><path style="opacity:1" fill="#fbfbfb" d="M -0.5,-0.5 C 243.833,-0.5 488.167,-0.5 732.5,-0.5C 732.5,82.8333 732.5,166.167 732.5,249.5C 488.167,249.5 243.833,249.5 -0.5,249.5C -0.5,166.167 -0.5,82.8333 -0.5,-0.5 Z"/></g>
<g><path style="opacity:1" fill="#edf2b5" d="M 387.5,23.5 C 386.508,16.3524 386.175,9.01905 386.5,1.5C 372.833,1.5 359.167,1.5 345.5,1.5C 345.825,9.01905 345.492,16.3524 344.5,23.5C 344.5,15.8333 344.5,8.16667 344.5,0.5C 358.833,0.5 373.167,0.5 387.5,0.5C 387.5,8.16667 387.5,15.8333 387.5,23.5 Z"/></g>
<g><path style="opacity:1" fill="#ebf0a5" d="M 387.5,23.5 C 389.833,23.5 392.167,23.5 394.5,23.5C 394.667,48.1689 394.5,72.8356 394,97.5C 388.051,114.23 376.218,121.397 358.5,119C 347.931,115.43 341.097,108.263 338,97.5C 337.5,72.8356 337.333,48.1689 337.5,23.5C 339.833,23.5 342.167,23.5 344.5,23.5C 345.492,16.3524 345.825,9.01905 345.5,1.5C 359.167,1.5 372.833,1.5 386.5,1.5C 386.175,9.01905 386.508,16.3524 387.5,23.5 Z"/></g>
<g><path style="opacity:1" fill="#f8f9e9" d="M 349.5,4.5 C 349.5,10.5 349.5,16.5 349.5,22.5C 360.5,22.5 371.5,22.5 382.5,22.5C 382.5,16.5 382.5,10.5 382.5,4.5C 383.49,10.6446 383.823,16.9779 383.5,23.5C 371.833,23.5 360.167,23.5 348.5,23.5C 348.177,16.9779 348.51,10.6446 349.5,4.5 Z"/></g>
<g><path style="opacity:1" fill="#fbfbf9" d="M 349.5,4.5 C 360.5,4.5 371.5,4.5 382.5,4.5C 382.5,10.5 382.5,16.5 382.5,22.5C 371.5,22.5 360.5,22.5 349.5,22.5C 349.5,16.5 349.5,10.5 349.5,4.5 Z"/></g>
<g><path style="opacity:1" fill="#ebf0a6" d="M 373.5,10.5 C 374.833,10.5 376.167,10.5 377.5,10.5C 377.5,12.8333 377.5,15.1667 377.5,17.5C 376.167,17.5 374.833,17.5 373.5,17.5C 373.5,15.1667 373.5,12.8333 373.5,10.5 Z"/></g>
<g><path style="opacity:1" fill="#eaf0a6" d="M 354.5,10.5 C 355.833,10.5 357.167,10.5 358.5,10.5C 358.5,12.8333 358.5,15.1667 358.5,17.5C 357.167,17.5 355.833,17.5 354.5,17.5C 354.5,15.1667 354.5,12.8333 354.5,10.5 Z"/></g>
<g><path style="opacity:1" fill="#fbfbfa" d="M 341.5,27.5 C 357.833,27.5 374.167,27.5 390.5,27.5C 390.5,29.8333 390.5,32.1667 390.5,34.5C 386.629,34.185 382.962,34.5184 379.5,35.5C 379.5,36.8333 379.5,38.1667 379.5,39.5C 383.167,39.5 386.833,39.5 390.5,39.5C 390.667,58.8362 390.5,78.1695 390,97.5C 384.518,111.998 374.018,117.831 358.5,115C 349.668,111.855 344.168,105.688 342,96.5C 341.5,77.5029 341.333,58.5029 341.5,39.5C 345.167,39.5 348.833,39.5 352.5,39.5C 352.5,38.1667 352.5,36.8333 352.5,35.5C 349.038,34.5184 345.371,34.185 341.5,34.5C 341.5,32.1667 341.5,29.8333 341.5,27.5 Z"/></g>
<g><path style="opacity:1" fill="#f3f6d2" d="M 341.5,27.5 C 341.5,29.8333 341.5,32.1667 341.5,34.5C 345.371,34.185 349.038,34.5184 352.5,35.5C 348.5,35.5 344.5,35.5 340.5,35.5C 340.194,32.6146 340.527,29.9479 341.5,27.5 Z"/></g>
<g><path style="opacity:1" fill="#f3f6d2" d="M 390.5,27.5 C 391.473,29.9479 391.806,32.6146 391.5,35.5C 387.5,35.5 383.5,35.5 379.5,35.5C 382.962,34.5184 386.629,34.185 390.5,34.5C 390.5,32.1667 390.5,29.8333 390.5,27.5 Z"/></g>
<g><path style="opacity:1" fill="#eaf0a1" d="M 356.5,35.5 C 357.5,35.5 358.5,35.5 359.5,35.5C 359.5,36.5 359.5,37.5 359.5,38.5C 358.5,38.5 357.5,38.5 356.5,38.5C 356.5,37.5 356.5,36.5 356.5,35.5 Z"/></g>
<g><path style="opacity:1" fill="#eaf0a1" d="M 375.5,35.5 C 375.5,36.5 375.5,37.5 375.5,38.5C 374.5,38.5 373.5,38.5 372.5,38.5C 372.5,37.5 372.5,36.5 372.5,35.5C 373.5,35.5 374.5,35.5 375.5,35.5 Z"/></g>
<g><path style="opacity:1" fill="#f3f6d4" d="M 364.5,35.5 C 364.5,36.5 364.5,37.5 364.5,38.5C 365.5,38.5 366.5,38.5 367.5,38.5C 367.5,37.5 367.5,36.5 367.5,35.5C 368.434,36.5676 368.768,37.901 368.5,39.5C 366.833,39.5 365.167,39.5 363.5,39.5C 363.232,37.901 363.566,36.5676 364.5,35.5 Z"/></g>
<g><path style="opacity:1" fill="#eaef9f" d="M 364.5,35.5 C 365.5,35.5 366.5,35.5 367.5,35.5C 367.5,36.5 367.5,37.5 367.5,38.5C 366.5,38.5 365.5,38.5 364.5,38.5C 364.5,37.5 364.5,36.5 364.5,35.5 Z"/></g>
<g><path style="opacity:1" fill="#f3f5cd" d="M 356.5,35.5 C 357.568,34.5655 358.901,34.2322 360.5,34.5C 360.5,36.1667 360.5,37.8333 360.5,39.5C 358.901,39.7678 357.568,39.4345 356.5,38.5C 357.5,38.5 358.5,38.5 359.5,38.5C 359.5,37.5 359.5,36.5 359.5,35.5C 358.5,35.5 357.5,35.5 356.5,35.5 Z"/></g>
<g><path style="opacity:1" fill="#f3f5cd" d="M 375.5,35.5 C 374.5,35.5 373.5,35.5 372.5,35.5C 372.5,36.5 372.5,37.5 372.5,38.5C 373.5,38.5 374.5,38.5 375.5,38.5C 374.432,39.4345 373.099,39.7678 371.5,39.5C 371.5,37.8333 371.5,36.1667 371.5,34.5C 373.099,34.2322 374.432,34.5655 375.5,35.5 Z"/></g>
<g><path style="opacity:1" fill="#eaf0a3" d="M 372.5,54.5 C 372.939,61.3144 372.939,68.3144 372.5,75.5C 376.371,75.185 380.038,75.5184 383.5,76.5C 375.167,84.1667 367.167,92.1667 359.5,100.5C 358.532,98.3926 358.198,96.0593 358.5,93.5C 358.437,88.7971 358.771,84.1304 359.5,79.5C 355.818,79.6653 352.152,79.4986 348.5,79C 356.702,70.965 364.702,62.7983 372.5,54.5 Z"/></g>
<g><path style="opacity:1" fill="#f9faf0" d="M 367.5,64.5 C 368.649,64.7911 369.316,65.6244 369.5,67C 368.671,71.1263 368.337,75.2929 368.5,79.5C 370.527,79.3379 372.527,79.5045 374.5,80C 370.985,83.6824 367.318,87.1824 363.5,90.5C 363.041,85.5645 363.041,80.5645 363.5,75.5C 361.473,75.6621 359.473,75.4955 357.5,75C 361.037,71.6309 364.371,68.1309 367.5,64.5 Z"/></g>
<g><path style="opacity:1" fill="#f8f9e9" d="M 372.5,54.5 C 372.56,53.9569 372.893,53.6236 373.5,53.5C 373.833,55.1667 374.167,56.8333 374.5,58.5C 373.805,63.8131 373.471,69.1464 373.5,74.5C 377.226,74.1774 380.893,74.5108 384.5,75.5C 384.376,76.1067 384.043,76.44 383.5,76.5C 380.038,75.5184 376.371,75.185 372.5,75.5C 372.939,68.3144 372.939,61.3144 372.5,54.5 Z"/></g>
<g><path style="opacity:1" fill="#f4f6d8" d="M 358.5,93.5 C 358.198,96.0593 358.532,98.3926 359.5,100.5C 359.44,101.043 359.107,101.376 358.5,101.5C 357.2,98.6908 357.2,96.0241 358.5,93.5 Z"/></g>
<g><path style="opacity:1" fill="#aca1d3" d="M 41.5,141.5 C 30.8333,141.5 20.1667,141.5 9.5,141.5C 9.1765,148.022 9.50984,154.355 10.5,160.5C 16.8421,160.334 23.1754,160.5 29.5,161C 43.0275,163.206 48.1942,171.039 45,184.5C 43.9471,190.553 40.4471,194.387 34.5,196C 23.5549,197.379 12.5549,197.879 1.5,197.5C 1.5,176.5 1.5,155.5 1.5,134.5C 14.8333,134.5 28.1667,134.5 41.5,134.5C 41.5,136.833 41.5,139.167 41.5,141.5 Z"/></g>
<g><path style="opacity:1" fill="#e9e7f2" d="M 41.5,141.5 C 31.3468,142.494 21.0135,142.828 10.5,142.5C 10.5,148.5 10.5,154.5 10.5,160.5C 9.50984,154.355 9.1765,148.022 9.5,141.5C 20.1667,141.5 30.8333,141.5 41.5,141.5 Z"/></g>
<g><path style="opacity:1" fill="#ada2d3" d="M 129.5,149.5 C 143.227,147.769 152.061,153.436 156,166.5C 158.728,179.296 154.894,189.463 144.5,197C 124.009,202.18 113.676,194.18 113.5,173C 113.052,161.021 118.386,153.187 129.5,149.5 Z"/></g>
<g><path style="opacity:1" fill="#ada3d3" d="M 234.5,149.5 C 248.215,147.764 257.048,153.431 261,166.5C 263.772,179.301 259.938,189.467 249.5,197C 228.98,202.146 218.646,194.146 218.5,173C 218.057,161.008 223.39,153.175 234.5,149.5 Z"/></g>
<g><path style="opacity:1" fill="#aca1d3" d="M 465.5,186.5 C 464.886,182.865 464.552,179.198 464.5,175.5C 461.167,175.5 457.833,175.5 454.5,175.5C 454.5,182.833 454.5,190.167 454.5,197.5C 452.167,197.5 449.833,197.5 447.5,197.5C 447.5,181.833 447.5,166.167 447.5,150.5C 449.833,150.5 452.167,150.5 454.5,150.5C 454.5,156.833 454.5,163.167 454.5,169.5C 457.713,169.81 460.713,169.477 463.5,168.5C 468.898,150.03 480.564,144.863 498.5,153C 501.614,156.06 504.114,159.56 506,163.5C 507.608,173.305 506.274,182.638 502,191.5C 495.463,198.042 487.629,200.209 478.5,198C 472.407,196.069 468.073,192.236 465.5,186.5 Z"/></g>
<g><path style="opacity:1" fill="#ada2d3" d="M 610.5,175.5 C 598.5,175.5 586.5,175.5 574.5,175.5C 574.232,177.099 574.566,178.432 575.5,179.5C 578.733,190.521 586.066,194.687 597.5,192C 600.93,191.119 604.263,189.952 607.5,188.5C 608.833,190.833 608.833,193.167 607.5,195.5C 578.789,204.605 565.623,194.271 568,164.5C 575.573,149.139 587.073,145.305 602.5,153C 609.223,158.998 611.889,166.498 610.5,175.5 Z"/></g>
<g><path style="opacity:1" fill="#ada2d3" d="M 632.5,192.5 C 632.44,191.957 632.107,191.624 631.5,191.5C 630.502,199.472 630.169,207.472 630.5,215.5C 628.167,215.5 625.833,215.5 623.5,215.5C 623.5,193.833 623.5,172.167 623.5,150.5C 625.833,150.5 628.167,150.5 630.5,150.5C 630.201,152.604 630.534,154.604 631.5,156.5C 638.627,148.721 646.96,147.388 656.5,152.5C 662.992,158.289 665.992,165.622 665.5,174.5C 665.536,183.934 661.869,191.434 654.5,197C 649.589,198.492 644.589,198.826 639.5,198C 636.405,197.065 634.071,195.231 632.5,192.5 Z"/></g>
<g><path style="opacity:1" fill="#aea3d3" d="M 67.5,150.5 C 67.3335,162.838 67.5001,175.171 68,187.5C 69.0386,186.756 69.5386,185.756 69.5,184.5C 76.3923,173.73 83.0589,162.73 89.5,151.5C 93.1073,150.511 96.774,150.177 100.5,150.5C 100.5,166.167 100.5,181.833 100.5,197.5C 98.1667,197.5 95.8333,197.5 93.5,197.5C 93.8324,185.149 93.499,172.815 92.5,160.5C 91.8933,160.624 91.56,160.957 91.5,161.5C 84.7629,173.305 77.7629,184.971 70.5,196.5C 66.8927,197.489 63.226,197.823 59.5,197.5C 59.5,181.833 59.5,166.167 59.5,150.5C 62.1667,150.5 64.8333,150.5 67.5,150.5 Z"/></g>
<g><path style="opacity:1" fill="#aca1d2" d="M 176.5,150.5 C 176.334,157.841 176.5,165.174 177,172.5C 177.717,171.956 178.217,171.289 178.5,170.5C 185.146,164.521 191.479,158.188 197.5,151.5C 200.784,150.343 204.118,150.176 207.5,151C 201.652,156.681 195.985,162.515 190.5,168.5C 196.833,177.833 203.167,187.167 209.5,196.5C 206.894,197.652 204.227,197.818 201.5,197C 195.994,189.334 190.328,181.834 184.5,174.5C 181.849,176.65 179.349,178.983 177,181.5C 176.501,186.823 176.334,192.156 176.5,197.5C 174.167,197.5 171.833,197.5 169.5,197.5C 169.5,181.833 169.5,166.167 169.5,150.5C 171.833,150.5 174.167,150.5 176.5,150.5 Z"/></g>
<g><path style="opacity:1" fill="#aca2d3" d="M 316.5,197.5 C 316.832,184.483 316.499,171.483 315.5,158.5C 314.893,158.624 314.56,158.957 314.5,159.5C 310.956,168.926 307.122,178.259 303,187.5C 300.205,188.783 297.372,188.783 294.5,187.5C 290.818,178.808 287.152,170.141 283.5,161.5C 283.013,160.527 282.513,159.527 282,158.5C 281.5,171.496 281.333,184.496 281.5,197.5C 279.167,197.5 276.833,197.5 274.5,197.5C 274.5,181.833 274.5,166.167 274.5,150.5C 278.437,150.207 282.27,150.54 286,151.5C 290.059,161.285 294.392,170.952 299,180.5C 303.149,170.864 307.316,161.197 311.5,151.5C 315.445,150.509 319.445,150.176 323.5,150.5C 323.5,166.167 323.5,181.833 323.5,197.5C 321.167,197.5 318.833,197.5 316.5,197.5 Z"/></g>
<g><path style="opacity:1" fill="#aca2d3" d="M 372.5,197.5 C 372.5,183.833 372.5,170.167 372.5,156.5C 363.833,156.5 355.167,156.5 346.5,156.5C 346.5,170.167 346.5,183.833 346.5,197.5C 344.167,197.5 341.833,197.5 339.5,197.5C 339.5,181.833 339.5,166.167 339.5,150.5C 353.167,150.5 366.833,150.5 380.5,150.5C 380.5,166.167 380.5,181.833 380.5,197.5C 377.833,197.5 375.167,197.5 372.5,197.5 Z"/></g>
<g><path style="opacity:1" fill="#ada3d3" d="M 395.5,150.5 C 398.167,150.5 400.833,150.5 403.5,150.5C 403.5,156.833 403.5,163.167 403.5,169.5C 412.143,168.725 420.476,169.892 428.5,173C 430.333,174.167 431.833,175.667 433,177.5C 435.542,185.895 433.042,192.061 425.5,196C 415.557,197.365 405.557,197.865 395.5,197.5C 395.5,181.833 395.5,166.167 395.5,150.5 Z"/></g>
<g><path style="opacity:1" fill="#ada3d3" d="M 514.5,150.5 C 529.5,150.5 544.5,150.5 559.5,150.5C 559.5,152.5 559.5,154.5 559.5,156.5C 553.167,156.5 546.833,156.5 540.5,156.5C 540.5,170.167 540.5,183.833 540.5,197.5C 537.833,197.5 535.167,197.5 532.5,197.5C 532.5,183.833 532.5,170.167 532.5,156.5C 526.5,156.5 520.5,156.5 514.5,156.5C 514.5,154.5 514.5,152.5 514.5,150.5 Z"/></g>
<g><path style="opacity:1" fill="#ada3d3" d="M 677.5,150.5 C 680.167,150.5 682.833,150.5 685.5,150.5C 685.5,156.833 685.5,163.167 685.5,169.5C 693.668,168.95 701.668,169.783 709.5,172C 715.229,176.041 717.062,181.541 715,188.5C 713.181,193.336 709.681,196.169 704.5,197C 695.506,197.5 686.506,197.666 677.5,197.5C 677.5,181.833 677.5,166.167 677.5,150.5 Z"/></g>
<g><path style="opacity:1" fill="#aea4d4" d="M 722.5,150.5 C 725.167,150.5 727.833,150.5 730.5,150.5C 730.5,166.167 730.5,181.833 730.5,197.5C 727.833,197.5 725.167,197.5 722.5,197.5C 722.5,181.833 722.5,166.167 722.5,150.5 Z"/></g>
<g><path style="opacity:1" fill="#e6e3f0" d="M 67.5,150.5 C 68.1667,161.833 68.8333,173.167 69.5,184.5C 69.5386,185.756 69.0386,186.756 68,187.5C 67.5001,175.171 67.3335,162.838 67.5,150.5 Z"/></g>
<g><path style="opacity:1" fill="#e1ddee" d="M 176.5,150.5 C 177.167,157.167 177.833,163.833 178.5,170.5C 178.217,171.289 177.717,171.956 177,172.5C 176.5,165.174 176.334,157.841 176.5,150.5 Z"/></g>
<g><path style="opacity:1" fill="#dcd8eb" d="M 454.5,150.5 C 455.49,156.31 455.823,162.31 455.5,168.5C 458.167,168.5 460.833,168.5 463.5,168.5C 460.713,169.477 457.713,169.81 454.5,169.5C 454.5,163.167 454.5,156.833 454.5,150.5 Z"/></g>
<g><path style="opacity:1" fill="#f9f8fa" d="M 131.5,155.5 C 139.935,155.431 145.435,159.431 148,167.5C 150.302,177.946 147.136,186.112 138.5,192C 130.037,193.184 124.537,189.684 122,181.5C 118.684,170.143 121.85,161.476 131.5,155.5 Z"/></g>
<g><path style="opacity:1" fill="#f9f9fa" d="M 234.5,156.5 C 242.476,154.741 248.309,157.408 252,164.5C 254.686,172.981 253.686,180.981 249,188.5C 237.852,195.267 230.519,192.267 227,179.5C 224.456,169.968 226.956,162.301 234.5,156.5 Z"/></g>
<g><path style="opacity:1" fill="#f9f9fa" d="M 482.5,155.5 C 490.584,155.12 495.751,158.787 498,166.5C 498.667,171.5 498.667,176.5 498,181.5C 494.115,191.697 487.282,194.531 477.5,190C 475.623,187.749 474.123,185.249 473,182.5C 472.123,175.751 472.456,169.084 474,162.5C 476.464,159.519 479.297,157.186 482.5,155.5 Z"/></g>
<g><path style="opacity:1" fill="#f9f8fa" d="M 586.5,155.5 C 596.583,154.924 601.916,159.59 602.5,169.5C 593.5,169.5 584.5,169.5 575.5,169.5C 576.18,162.487 579.846,157.82 586.5,155.5 Z"/></g>
<g><path style="opacity:1" fill="#f9f9fa" d="M 640.5,155.5 C 649.963,154.796 655.463,159.129 657,168.5C 658.625,176.613 656.792,183.78 651.5,190C 641.727,194.697 635.227,191.864 632,181.5C 631.182,175.098 631.516,168.765 633,162.5C 635.37,159.961 637.87,157.628 640.5,155.5 Z"/></g>
<g><path style="opacity:1" fill="#dfdbed" d="M 372.5,197.5 C 371.504,184.344 371.171,171.01 371.5,157.5C 363.5,157.5 355.5,157.5 347.5,157.5C 347.829,171.01 347.496,184.344 346.5,197.5C 346.5,183.833 346.5,170.167 346.5,156.5C 355.167,156.5 363.833,156.5 372.5,156.5C 372.5,170.167 372.5,183.833 372.5,197.5 Z"/></g>
<g><path style="opacity:1" fill="#c2bade" d="M 314.5,159.5 C 314.56,158.957 314.893,158.624 315.5,158.5C 316.499,171.483 316.832,184.483 316.5,197.5C 315.833,184.833 315.167,172.167 314.5,159.5 Z"/></g>
<g><path style="opacity:1" fill="#d7d2e8" d="M 283.5,161.5 C 282.833,173.5 282.167,185.5 281.5,197.5C 281.333,184.496 281.5,171.496 282,158.5C 282.513,159.527 283.013,160.527 283.5,161.5 Z"/></g>
<g><path style="opacity:1" fill="#bdb4dc" d="M 91.5,161.5 C 91.56,160.957 91.8933,160.624 92.5,160.5C 93.499,172.815 93.8324,185.149 93.5,197.5C 92.8333,185.5 92.1667,173.5 91.5,161.5 Z"/></g>
<g><path style="opacity:1" fill="#f9f9fa" d="M 9.5,167.5 C 16.9059,167.152 24.2392,167.652 31.5,169C 35.5375,171.075 37.2041,174.408 36.5,179C 37.1912,184.622 34.8578,188.289 29.5,190C 22.8417,190.5 16.175,190.666 9.5,190.5C 9.5,182.833 9.5,175.167 9.5,167.5 Z"/></g>
<g><path style="opacity:1" fill="#d6d1e8" d="M 610.5,175.5 C 599.012,176.495 587.345,176.828 575.5,176.5C 575.5,177.5 575.5,178.5 575.5,179.5C 574.566,178.432 574.232,177.099 574.5,175.5C 586.5,175.5 598.5,175.5 610.5,175.5 Z"/></g>
<g><path style="opacity:1" fill="#e0dced" d="M 417.5,176.5 C 413.167,176.5 408.833,176.5 404.5,176.5C 404.5,181.5 404.5,186.5 404.5,191.5C 403.512,186.36 403.179,181.026 403.5,175.5C 408.363,175.181 413.03,175.514 417.5,176.5 Z"/></g>
<g><path style="opacity:1" fill="#fafafb" d="M 417.5,176.5 C 425.058,177.562 427.225,181.562 424,188.5C 422.352,189.717 420.519,190.55 418.5,191C 413.845,191.499 409.179,191.666 404.5,191.5C 404.5,186.5 404.5,181.5 404.5,176.5C 408.833,176.5 413.167,176.5 417.5,176.5 Z"/></g>
<g><path style="opacity:1" fill="#dcd7ea" d="M 699.5,176.5 C 695.167,176.5 690.833,176.5 686.5,176.5C 686.5,181.5 686.5,186.5 686.5,191.5C 685.512,186.36 685.179,181.026 685.5,175.5C 690.363,175.181 695.03,175.514 699.5,176.5 Z"/></g>
<g><path style="opacity:1" fill="#fafafb" d="M 699.5,176.5 C 707.153,177.47 709.319,181.47 706,188.5C 704.352,189.717 702.519,190.55 700.5,191C 695.845,191.499 691.179,191.666 686.5,191.5C 686.5,186.5 686.5,181.5 686.5,176.5C 690.833,176.5 695.167,176.5 699.5,176.5 Z"/></g>
<g><path style="opacity:1" fill="#e0dded" d="M 465.5,186.5 C 463.825,183.493 463.159,180.16 463.5,176.5C 460.833,176.5 458.167,176.5 455.5,176.5C 455.825,183.687 455.491,190.687 454.5,197.5C 454.5,190.167 454.5,182.833 454.5,175.5C 457.833,175.5 461.167,175.5 464.5,175.5C 464.552,179.198 464.886,182.865 465.5,186.5 Z"/></g>
<g><path style="opacity:1" fill="#d5d0e7" d="M 632.5,192.5 C 631.833,200.167 631.167,207.833 630.5,215.5C 630.169,207.472 630.502,199.472 631.5,191.5C 632.107,191.624 632.44,191.957 632.5,192.5 Z"/></g>
<g><path style="opacity:1" fill="#afa4d4" d="M 383.5,229.5 C 383.5,231.5 383.5,233.5 383.5,235.5C 378.5,235.5 373.5,235.5 368.5,235.5C 368.232,237.099 368.566,238.432 369.5,239.5C 373.047,244.057 377.38,244.723 382.5,241.5C 383.731,242.651 383.731,243.817 382.5,245C 368.894,248.394 363.394,243.227 366,229.5C 368.942,224.847 373.109,223.347 378.5,225C 380.66,225.996 382.327,227.496 383.5,229.5 Z"/></g>
<g><path style="opacity:1" fill="#b0a6d5" d="M 441.5,224.5 C 452.983,223.822 457.483,229.155 455,240.5C 452.259,245.419 448.092,247.252 442.5,246C 440.714,245.215 439.214,244.049 438,242.5C 435.051,235.519 436.218,229.519 441.5,224.5 Z"/></g>
<g><path style="opacity:1" fill="#cbc5e3" d="M 475.5,227.5 C 471.285,225.564 466.619,224.897 461.5,225.5C 461.5,232.167 461.5,238.833 461.5,245.5C 460.509,238.687 460.175,231.687 460.5,224.5C 465.833,224.5 471.167,224.5 476.5,224.5C 476.737,225.791 476.404,226.791 475.5,227.5 Z"/></g>
<g><path style="opacity:1" fill="#ada2d3" d="M 212.5,224.5 C 212.334,229.844 212.501,235.177 213,240.5C 213.717,239.956 214.217,239.289 214.5,238.5C 217.201,234.144 219.868,229.811 222.5,225.5C 223.833,225.5 225.167,225.5 226.5,225.5C 226.5,232.167 226.5,238.833 226.5,245.5C 225.833,245.5 225.167,245.5 224.5,245.5C 224.828,240.125 224.495,234.792 223.5,229.5C 222.893,229.624 222.56,229.957 222.5,230.5C 219.845,235.139 217.179,239.806 214.5,244.5C 212.955,245.452 211.288,245.785 209.5,245.5C 209.5,238.5 209.5,231.5 209.5,224.5C 210.5,224.5 211.5,224.5 212.5,224.5 Z"/></g>
<g><path style="opacity:1" fill="#e4e1ef" d="M 212.5,224.5 C 213.167,229.167 213.833,233.833 214.5,238.5C 214.217,239.289 213.717,239.956 213,240.5C 212.501,235.177 212.334,229.844 212.5,224.5 Z"/></g>
<g><path style="opacity:1" fill="#b0a6d5" d="M 274.5,224.5 C 279.081,223.923 283.248,224.923 287,227.5C 288.41,233.379 288.91,239.379 288.5,245.5C 286.549,245.773 285.049,245.107 284,243.5C 279.199,247.749 274.866,247.416 271,242.5C 269.707,238.418 270.874,235.251 274.5,233C 277.817,232.502 281.15,232.335 284.5,232.5C 284.703,230.61 284.037,229.11 282.5,228C 279.438,227.259 276.438,227.425 273.5,228.5C 273.167,228 272.833,227.5 272.5,227C 273.056,225.989 273.722,225.156 274.5,224.5 Z"/></g>
<g><path style="opacity:1" fill="#aea3d4" d="M 309.5,233.5 C 310.166,230.972 310.832,228.306 311.5,225.5C 312.497,232.134 312.83,238.8 312.5,245.5C 311.5,245.5 310.5,245.5 309.5,245.5C 309.5,242.5 309.5,239.5 309.5,236.5C 305.833,236.5 302.167,236.5 298.5,236.5C 298.5,239.5 298.5,242.5 298.5,245.5C 297.5,245.5 296.5,245.5 295.5,245.5C 295.5,238.5 295.5,231.5 295.5,224.5C 296.5,224.5 297.5,224.5 298.5,224.5C 298.5,227.5 298.5,230.5 298.5,233.5C 302.167,233.5 305.833,233.5 309.5,233.5 Z"/></g>
<g><path style="opacity:1" fill="#bfb7dc" d="M 312.5,245.5 C 312.83,238.8 312.497,232.134 311.5,225.5C 310.832,228.306 310.166,230.972 309.5,233.5C 309.5,230.5 309.5,227.5 309.5,224.5C 310.833,224.5 312.167,224.5 313.5,224.5C 313.825,231.687 313.491,238.687 312.5,245.5 Z"/></g>
<g><path style="opacity:1" fill="#aca1d3" d="M 416.5,236.5 C 415.834,239.358 415.167,242.358 414.5,245.5C 413.167,238.833 413.167,232.167 414.5,225.5C 415.168,228.306 415.834,230.972 416.5,233.5C 420.167,233.5 423.833,233.5 427.5,233.5C 427.5,230.5 427.5,227.5 427.5,224.5C 428.5,224.5 429.5,224.5 430.5,224.5C 430.5,231.5 430.5,238.5 430.5,245.5C 429.5,245.5 428.5,245.5 427.5,245.5C 427.5,242.5 427.5,239.5 427.5,236.5C 423.833,236.5 420.167,236.5 416.5,236.5 Z"/></g>
<g><path style="opacity:1" fill="#aa9fd2" d="M 475.5,227.5 C 471.833,227.5 468.167,227.5 464.5,227.5C 464.5,233.5 464.5,239.5 464.5,245.5C 463.5,245.5 462.5,245.5 461.5,245.5C 461.5,238.833 461.5,232.167 461.5,225.5C 466.619,224.897 471.285,225.564 475.5,227.5 Z"/></g>
<g><path style="opacity:1" fill="#aea4d4" d="M 484.5,224.5 C 484.334,229.844 484.501,235.177 485,240.5C 485.717,239.956 486.217,239.289 486.5,238.5C 489.105,234.206 491.772,229.873 494.5,225.5C 496.045,224.548 497.712,224.215 499.5,224.5C 499.5,231.5 499.5,238.5 499.5,245.5C 498.5,245.5 497.5,245.5 496.5,245.5C 496.828,240.125 496.495,234.792 495.5,229.5C 494.702,229.957 494.369,230.624 494.5,231.5C 491.507,235.479 489.007,239.812 487,244.5C 485.301,245.406 483.467,245.739 481.5,245.5C 481.5,238.5 481.5,231.5 481.5,224.5C 482.5,224.5 483.5,224.5 484.5,224.5 Z"/></g>
<g><path style="opacity:1" fill="#aea3d4" d="M 519.5,245.5 C 519.5,242.5 519.5,239.5 519.5,236.5C 517.585,236.216 515.919,236.549 514.5,237.5C 512.968,240.057 511.301,242.557 509.5,245C 508.167,245.667 506.833,245.667 505.5,245C 507.5,242.333 509.5,239.667 511.5,237C 506.962,235.287 505.462,232.12 507,227.5C 507.903,226.299 509.069,225.465 510.5,225C 514.486,224.501 518.486,224.334 522.5,224.5C 522.5,231.5 522.5,238.5 522.5,245.5C 521.5,245.5 520.5,245.5 519.5,245.5 Z"/></g>
<g><path style="opacity:1" fill="#c4bcdf" d="M 222.5,225.5 C 223.919,224.549 225.585,224.216 227.5,224.5C 227.825,231.687 227.491,238.687 226.5,245.5C 226.5,238.833 226.5,232.167 226.5,225.5C 225.167,225.5 223.833,225.5 222.5,225.5 Z"/></g>
<g><path style="opacity:1" fill="#aca1d2" d="M 249.5,224.5 C 249.5,227.5 249.5,230.5 249.5,233.5C 253.5,233.5 257.5,233.5 261.5,233.5C 261.5,230.5 261.5,227.5 261.5,224.5C 262.5,224.5 263.5,224.5 264.5,224.5C 264.5,231.5 264.5,238.5 264.5,245.5C 263.5,245.5 262.5,245.5 261.5,245.5C 261.5,242.167 261.5,238.833 261.5,235.5C 257.629,235.185 253.962,235.518 250.5,236.5C 249.523,239.287 249.19,242.287 249.5,245.5C 248.5,245.5 247.5,245.5 246.5,245.5C 246.5,238.5 246.5,231.5 246.5,224.5C 247.5,224.5 248.5,224.5 249.5,224.5 Z"/></g>
<g><path style="opacity:1" fill="#b3a8d6" d="M 341.5,224.5 C 348.167,224.5 354.833,224.5 361.5,224.5C 361.5,225.5 361.5,226.5 361.5,227.5C 358.833,227.5 356.167,227.5 353.5,227.5C 353.5,233.5 353.5,239.5 353.5,245.5C 352.167,245.5 350.833,245.5 349.5,245.5C 349.5,239.5 349.5,233.5 349.5,227.5C 346.833,227.5 344.167,227.5 341.5,227.5C 341.5,226.5 341.5,225.5 341.5,224.5 Z"/></g>
<g><path style="opacity:1" fill="#b0a5d5" d="M 388.5,224.5 C 389.873,224.343 391.207,224.51 392.5,225C 393.975,227.309 395.642,229.476 397.5,231.5C 400.024,229.81 402.024,227.643 403.5,225C 404.635,224.251 405.635,224.417 406.5,225.5C 404.287,228.543 402.287,231.71 400.5,235C 402.429,238.599 404.763,241.933 407.5,245C 406.167,245.667 404.833,245.667 403.5,245C 401.607,242.697 399.607,240.53 397.5,238.5C 395.844,240.46 394.177,242.46 392.5,244.5C 391.167,245.833 389.833,245.833 388.5,244.5C 390.833,241.167 393.167,237.833 395.5,234.5C 393.116,231.131 390.783,227.797 388.5,224.5 Z"/></g>
<g><path style="opacity:1" fill="#c0b7dd" d="M 416.5,233.5 C 415.834,230.972 415.168,228.306 414.5,225.5C 413.167,232.167 413.167,238.833 414.5,245.5C 415.167,242.358 415.834,239.358 416.5,236.5C 416.5,239.833 416.5,243.167 416.5,246.5C 415.167,246.5 413.833,246.5 412.5,246.5C 412.5,239.167 412.5,231.833 412.5,224.5C 413.833,224.5 415.167,224.5 416.5,224.5C 416.5,227.5 416.5,230.5 416.5,233.5 Z"/></g>
<g><path style="opacity:1" fill="#dfdbee" d="M 484.5,224.5 C 485.167,229.167 485.833,233.833 486.5,238.5C 486.217,239.289 485.717,239.956 485,240.5C 484.501,235.177 484.334,229.844 484.5,224.5 Z"/></g>
<g><path style="opacity:1" fill="#afa5d4" d="M 324.5,224.5 C 338.212,224.919 341.879,231.253 335.5,243.5C 329.124,248.283 323.958,247.283 320,240.5C 319.333,236.833 319.333,233.167 320,229.5C 321.025,227.313 322.525,225.646 324.5,224.5 Z"/></g>
<g><path style="opacity:1" fill="#f6f5f9" d="M 325.5,227.5 C 333.394,227.565 336.227,231.565 334,239.5C 330.433,244.796 326.766,244.796 323,239.5C 321.888,235.019 322.721,231.019 325.5,227.5 Z"/></g>
<g><path style="opacity:1" fill="#f5f4f8" d="M 371.5,227.5 C 374.32,227.248 376.986,227.748 379.5,229C 380.38,230.356 380.714,231.856 380.5,233.5C 376.5,233.5 372.5,233.5 368.5,233.5C 368.615,231.053 369.615,229.053 371.5,227.5 Z"/></g>
<g><path style="opacity:1" fill="#f8f8fa" d="M 443.5,227.5 C 451.121,227.946 453.621,231.946 451,239.5C 447.667,244.833 444.333,244.833 441,239.5C 439.773,234.938 440.607,230.938 443.5,227.5 Z"/></g>
<g><path style="opacity:1" fill="#fafafb" d="M 511.5,228.5 C 513.833,228.5 516.167,228.5 518.5,228.5C 518.5,230.167 518.5,231.833 518.5,233.5C 516.5,233.5 514.5,233.5 512.5,233.5C 510.403,232.121 510.07,230.455 511.5,228.5 Z"/></g>
<g><path style="opacity:1" fill="#e2dfee" d="M 511.5,228.5 C 513.948,227.527 516.615,227.194 519.5,227.5C 519.5,229.833 519.5,232.167 519.5,234.5C 516.941,234.802 514.607,234.468 512.5,233.5C 514.5,233.5 516.5,233.5 518.5,233.5C 518.5,231.833 518.5,230.167 518.5,228.5C 516.167,228.5 513.833,228.5 511.5,228.5 Z"/></g>
<g><path style="opacity:1" fill="#c3bbde" d="M 222.5,230.5 C 222.56,229.957 222.893,229.624 223.5,229.5C 224.495,234.792 224.828,240.125 224.5,245.5C 223.833,240.5 223.167,235.5 222.5,230.5 Z"/></g>
<g><path style="opacity:1" fill="#d0cae5" d="M 496.5,245.5 C 495.833,240.833 495.167,236.167 494.5,231.5C 494.369,230.624 494.702,229.957 495.5,229.5C 496.495,234.792 496.828,240.125 496.5,245.5 Z"/></g>
<g><path style="opacity:1" fill="#e3e0ef" d="M 249.5,224.5 C 250.473,226.948 250.806,229.615 250.5,232.5C 253.833,232.5 257.167,232.5 260.5,232.5C 260.194,229.615 260.527,226.948 261.5,224.5C 261.5,227.5 261.5,230.5 261.5,233.5C 257.5,233.5 253.5,233.5 249.5,233.5C 249.5,230.5 249.5,227.5 249.5,224.5 Z"/></g>
<g><path style="opacity:1" fill="#c8c1e1" d="M 383.5,229.5 C 384.468,231.607 384.802,233.941 384.5,236.5C 379.5,236.5 374.5,236.5 369.5,236.5C 369.5,237.5 369.5,238.5 369.5,239.5C 368.566,238.432 368.232,237.099 368.5,235.5C 373.5,235.5 378.5,235.5 383.5,235.5C 383.5,233.5 383.5,231.5 383.5,229.5 Z"/></g>
<g><path style="opacity:1" fill="#d3cde6" d="M 250.5,236.5 C 253.962,235.518 257.629,235.185 261.5,235.5C 261.5,238.833 261.5,242.167 261.5,245.5C 260.523,242.713 260.19,239.713 260.5,236.5C 257.167,236.5 253.833,236.5 250.5,236.5 Z"/></g>
<g><path style="opacity:1" fill="#f6f6f9" d="M 275.5,235.5 C 278.5,235.5 281.5,235.5 284.5,235.5C 284.41,242.122 281.243,244.455 275,242.5C 274.297,240.071 274.463,237.738 275.5,235.5 Z"/></g>
<g><path style="opacity:1" fill="#dcd8eb" d="M 514.5,237.5 C 515.919,236.549 517.585,236.216 519.5,236.5C 519.5,239.5 519.5,242.5 519.5,245.5C 518.527,243.052 518.194,240.385 518.5,237.5C 517.167,237.5 515.833,237.5 514.5,237.5 Z"/></g>
</svg>
